<svg width="21" height="24" viewBox="0 0 21 24" fill="none" xmlns="http://www.w3.org/2000/svg">
<path fill-rule="evenodd" clip-rule="evenodd" d="M10.6259 6.9061C10.8174 7.00966 10.7772 6.88826 10.9621 6.94028C11.0173 6.9616 11.0891 7.04067 11.1135 7.09104C11.285 7.44298 11.4145 7.80324 11.6022 8.14895C12.0201 8.91869 12.4894 9.64331 12.9694 10.3728C13.1245 10.6084 13.4069 10.9512 13.5193 11.1865C13.259 10.8997 13.016 10.5541 12.7388 10.2845C12.8331 10.5199 12.9568 10.7022 13.0751 10.9156C13.4259 11.5483 13.7453 11.9711 14.2325 12.4888C14.154 12.3307 14.1231 12.136 14.0416 11.9346C14.168 12.0694 14.3733 12.3621 14.4805 12.5155L15.1442 13.4763L17.7382 17.198L17.8017 17.2852C17.8642 17.3716 17.924 17.4567 17.9787 17.5522C17.8933 17.4644 17.8138 17.3566 17.7404 17.2546L17.7094 17.2113C17.477 16.9233 17.3012 16.722 17.0518 16.4512C17.191 16.8317 17.4531 17.1617 17.6633 17.504C17.6938 17.5536 17.8808 17.8235 17.8795 17.8561C17.8443 17.8347 17.6104 17.5054 17.5705 17.4517L16.8759 16.5254C16.5815 16.1282 16.0926 15.4008 15.7225 15.1453C16.0128 15.826 16.2296 16.0933 16.6508 16.6905L17.4852 17.8662L19.3684 20.5825L19.9559 21.439C19.9954 21.4965 20.1968 21.7816 20.2151 21.8306C20.1414 21.7687 19.9528 21.5219 19.8793 21.4337C19.6256 21.1343 19.3743 20.8326 19.1257 20.5287C19.0131 20.3913 18.7775 20.0891 18.6568 19.9741C18.6939 20.0571 18.7313 20.1398 18.7693 20.2224C18.6226 20.0986 18.4561 19.8708 18.3298 19.7127C18.1515 19.4923 17.9709 19.2741 17.7877 19.0579C17.6836 18.9327 17.536 18.7453 17.4243 18.6343C17.7937 19.2997 18.2527 19.9171 18.6002 20.6288C18.5391 20.5643 18.4872 20.5092 18.4304 20.4404C18.6816 20.9467 19.0212 21.4298 19.329 21.9015C19.3907 21.9957 19.807 22.5918 19.82 22.6487C19.7468 22.6136 19.0898 21.6529 18.9763 21.5052C18.7851 21.2559 18.5936 20.9719 18.3633 20.7371C18.4133 20.8587 18.4839 21.0136 18.5269 21.1316C18.1269 20.604 17.7382 20.0673 17.3612 19.5222C16.916 18.8954 16.4756 18.2652 16.0399 17.6314C15.5939 16.9857 15.0406 16.1364 14.5182 15.5669C14.9199 16.3028 15.3778 16.9669 15.8459 17.6562C16.2671 18.2811 16.6914 18.9038 17.1192 19.5241C17.3933 19.9193 17.775 20.4307 18.0176 20.8306L17.8801 20.7125C18.4325 21.5331 18.9529 22.3838 19.5106 23.2019C19.6003 23.3334 19.6983 23.4762 19.7799 23.6113L19.8019 23.6431C19.8515 23.7152 19.8898 23.7743 19.9358 23.8552C19.8855 23.8088 19.8437 23.753 19.803 23.6967L19.7626 23.6406C19.3628 23.1048 18.9595 22.572 18.5525 22.0421C17.9687 21.2686 17.3698 20.4662 16.7695 19.7075C16.9748 20.1097 17.2183 20.4899 17.4205 20.9094C17.3118 20.7819 17.1505 20.551 17.0462 20.4105C16.7513 20.0117 16.4609 19.6094 16.1752 19.2035C15.7376 18.5966 15.3121 17.9804 14.8994 17.3554C14.7141 17.0725 14.5203 16.7789 14.3546 16.4846C14.5895 16.7237 14.8108 16.9197 15.0432 17.1677C14.9537 17.0139 14.8291 16.8328 14.7601 16.6738C14.5171 16.1149 14.1536 15.6265 13.8112 15.1219L12.7768 13.5914C12.5559 13.26 12.3303 12.932 12.0999 12.6074C11.984 12.4468 11.8476 12.253 11.7117 12.1122C12.171 13.0777 12.8968 13.9701 13.4159 14.9102C13.5235 15.1049 13.7242 15.3996 13.7837 15.603C13.5197 15.2133 13.2294 14.8279 12.9609 14.4353C12.5348 13.8007 12.1155 13.1611 11.7032 12.517L10.6897 10.9773C10.5884 10.8247 10.4696 10.5871 10.3568 10.4563C10.2399 10.5879 10.1497 10.7648 10.0442 10.9059C9.724 11.3337 9.46987 11.7177 9.19861 12.1797C9.32194 12.0867 9.44278 11.9637 9.56653 11.8695C9.68853 11.7768 9.8108 11.6956 9.93411 11.6016C9.86819 11.7062 9.79872 11.8172 9.74821 11.9302C9.70484 12.0272 9.68579 12.1221 9.62763 12.2124C9.25902 12.7843 8.83471 13.3222 8.48367 13.9061C8.40821 14.0315 8.32052 14.2188 8.25435 14.3527C8.32042 14.2982 8.38611 14.2386 8.45996 14.1971L8.47137 14.2035C8.48798 14.3258 8.18284 14.7215 8.09851 14.8306C7.81295 15.2004 7.54349 15.5831 7.25665 15.9516C7.15793 16.0785 7.05474 16.2199 6.94175 16.3329C6.99165 16.232 7.06015 16.1428 7.11121 16.0458C7.36335 15.5668 7.74598 15.1492 7.99228 14.6724C7.75547 14.9542 7.60081 15.16 7.41327 15.475C7.18269 15.8622 6.81693 16.1895 6.52241 16.5247C6.38324 16.6829 6.24865 16.873 6.11927 17.0426L5.4748 17.8881C5.41969 17.9604 5.18385 18.276 5.12441 18.3232C5.15815 18.2341 5.33663 17.99 5.40804 17.8369C5.25531 17.9936 5.05276 18.2678 4.90652 18.4477L3.97929 19.5794L1.5101 22.5302L0.663025 23.5474C0.577483 23.6497 0.361311 23.9242 0.277438 24C0.268289 23.978 0.335351 23.8998 0.353927 23.8743L2.30184 21.1361C2.35676 21.0588 2.68282 20.6262 2.69931 20.575C2.65788 20.5969 2.28694 21.0434 2.17659 21.1344C2.26089 20.9631 2.51634 20.6253 2.63527 20.4531C2.8828 20.095 3.13365 19.7323 3.38689 19.3785C4.25585 18.1735 5.13338 16.9751 6.01943 15.7834C6.53583 15.0857 7.15857 14.3005 7.60456 13.5701C7.22518 13.8621 6.72306 14.604 6.42396 15.0162L5.29836 16.5607C4.14269 18.131 2.95833 19.6788 1.74591 21.2034C1.79853 21.1016 1.89329 20.9717 1.96021 20.8745C2.09889 20.6732 2.17414 20.5103 2.24582 20.2761C2.19263 20.3187 2.12082 20.3899 2.06897 20.4387C2.11289 20.3446 2.17312 20.2623 2.21835 20.1657C2.50055 19.5635 2.92309 19.0338 3.2802 18.479C3.14549 18.5976 2.85035 18.9781 2.71189 19.1393C2.52818 19.3532 2.29042 19.5872 2.12176 19.7953C1.7218 20.2886 1.33683 20.8368 0.909501 21.3052L0.899711 21.296C1.05735 21.0709 1.25305 20.7804 1.38185 20.5399L1.20135 20.6884C1.38322 20.3647 1.78757 19.8142 2.01182 19.4962C2.63559 18.6228 3.267 17.7552 3.90598 16.8935C4.0672 16.6747 5.0347 15.4356 4.96399 15.236C4.91203 15.2682 4.77434 15.4297 4.72912 15.483C4.10039 16.2238 3.52997 17.0167 2.91822 17.772C2.90196 17.7921 2.89753 17.7943 2.89714 17.7915L2.90588 17.7799L2.90139 17.7716C2.96999 17.6506 3.103 17.4649 3.18441 17.3482C3.40319 17.0349 3.60584 16.7511 3.78154 16.4079C3.68057 16.5049 3.6022 16.5834 3.48865 16.6662C3.58991 16.4521 3.82442 16.1479 3.96841 15.9526L4.65197 15.0239L5.63053 13.6704C5.74988 13.5025 6.51548 12.3642 6.65838 12.3977C6.6567 12.429 6.65403 12.4573 6.65108 12.4884L6.67031 12.4916C6.93849 12.3237 7.78648 11.1863 7.92456 10.8871C7.80927 11.0318 7.75239 11.0918 7.60585 11.2019C7.72603 10.9307 7.94797 10.6415 8.11129 10.3857C7.93136 10.5367 7.58379 10.9676 7.39358 11.1704C7.53359 10.9238 7.72018 10.6956 7.87334 10.4575C8.41794 9.61294 8.96926 8.76982 9.41606 7.86526C9.55834 7.57721 9.72575 7.12723 9.97918 6.93999L10.0723 7.03172L10.1579 6.91913C10.2155 6.94572 10.2759 6.97703 10.3332 7.00534L10.6259 6.9061ZM13.52 13.7207C13.6334 13.9399 13.8903 14.4068 14.0959 14.53C13.9961 14.3304 13.6873 13.8208 13.52 13.7207ZM8.96292 12.5763C8.73768 12.7286 8.51346 13.0941 8.3942 13.342L8.39793 13.3661L8.40646 13.3715C8.51508 13.2612 8.93969 12.7079 8.97326 12.5892L8.96292 12.5763ZM10.7634 8.78384C11.0081 9.53425 11.3639 9.95616 11.806 10.5915L12.4063 11.4672C12.6647 11.8361 12.9693 12.2609 13.1992 12.6506L13.2381 12.7093C13.2777 12.769 13.3196 12.8302 13.3673 12.8784C13.3573 12.8428 13.2987 12.7458 13.2568 12.6777L13.223 12.6227C13.1205 12.4623 13.0639 12.3345 12.9761 12.1668C12.8894 12.0013 12.7881 11.8545 12.7093 11.6807C12.7762 11.7367 12.8361 11.7852 12.8975 11.848C12.8363 11.687 12.6248 11.3881 12.5218 11.239C12.2234 10.8068 11.9124 10.3675 11.6008 9.94422C11.3394 9.58892 11.0455 9.10494 10.7634 8.78384ZM8.87348 11.1753C8.71952 11.3176 8.51355 11.5882 8.38313 11.7521C8.2838 11.877 7.74978 12.6703 7.75318 12.7755C7.89903 12.6118 8.89942 11.273 8.87348 11.1753ZM12.7253 10.7473C12.8904 10.9885 13.5961 12.0447 13.7666 12.1567C13.6977 11.8801 12.9506 10.8674 12.7253 10.7473ZM11.5885 11.3387C11.6486 11.4751 11.9628 11.9637 12.0737 12.0461C12.0383 11.9326 11.6832 11.3876 11.5885 11.3387ZM8.81328 10.2509C8.69191 10.3757 7.97101 11.3283 7.94451 11.4539C8.0565 11.3397 8.8022 10.3649 8.81328 10.2509ZM10.903 10.3853C10.9559 10.4931 11.2929 11.0321 11.3855 11.0705C11.3294 10.966 10.9777 10.4252 10.903 10.3853ZM9.71301 10.2066C9.54269 10.3823 9.41843 10.597 9.28628 10.8057L9.29662 10.8156C9.45288 10.6119 9.58882 10.4513 9.72389 10.2294C9.71659 10.2082 9.7225 10.2141 9.71301 10.2066Z" fill="#E2AB5E"/>
<path d="M7.8941 15.6478C7.89765 15.7126 7.33926 16.5809 7.25279 16.6935C6.95584 17.0801 6.63393 17.481 6.33029 17.8638C5.67936 18.688 5.02205 19.5069 4.3584 20.3204L2.57352 22.5444C2.33788 22.8371 2.09233 23.1543 1.85169 23.4404L1.85108 23.4253C1.93101 23.2857 2.16547 22.9772 2.26732 22.8354L3.15397 21.6028C4.00271 20.4101 4.87689 19.2368 5.77583 18.0834C6.21208 17.5261 6.64591 16.9772 7.11209 16.4452C7.36312 16.1588 7.62533 15.9161 7.8941 15.6478Z" fill="#E2AB5E"/>
<path d="M1.72671 21.23C1.65877 21.3451 1.49187 21.5597 1.40753 21.6731C1.20055 21.9515 0.969293 22.2795 0.732712 22.5296C0.720194 22.4554 1.60314 21.3663 1.72367 21.2123L1.72671 21.23Z" fill="#E2AB5E"/>
<path d="M20.9744 12.8257C20.9846 12.8351 20.9941 12.8481 20.9946 12.8631C21.0616 14.7352 20.502 16.7627 19.4541 18.2936L19.4521 18.2921C19.4399 18.2587 19.5638 18.0598 19.591 18.0091C19.7214 17.7659 19.8457 17.5188 19.9646 17.2695C20.4653 16.2285 20.7852 15.1062 20.9102 13.9526C20.9499 13.5618 20.952 13.2148 20.9744 12.8257Z" fill="#E2AB5E"/>
<path fill-rule="evenodd" clip-rule="evenodd" d="M8.36919 3.13911C8.25714 3.19465 7.92523 3.27158 7.78161 3.32106C7.27805 3.49455 6.39883 3.77299 5.97397 4.0837L7.34546 3.65222C7.56313 3.58153 7.79305 3.49836 8.0128 3.43403C8.09167 3.41095 8.06243 3.48881 8.16539 3.46393C8.4563 3.39358 8.9088 3.26966 9.20168 3.25486C8.95923 3.33241 8.72138 3.41281 8.4742 3.4739C8.4015 3.49185 8.24594 3.52555 8.18861 3.56467L8.19509 3.57464C8.23431 3.57554 8.37785 3.60784 8.3637 3.61003C8.61604 3.57161 8.86868 3.5592 9.12218 3.52903L9.14196 3.52586C9.19578 3.51766 9.29797 3.50472 9.33453 3.50571L9.346 3.52505C9.29229 3.54257 9.20352 3.55469 9.15602 3.55863L9.15604 3.55865C8.84461 3.61156 8.54048 3.69303 8.23453 3.77152C8.17691 3.78629 8.16032 3.75792 8.13534 3.71196C7.98843 3.68349 7.55217 3.88001 7.4148 3.95892C7.7008 3.87964 7.72261 3.92201 7.97558 3.88736C8.11564 3.86816 8.31035 3.80353 8.48776 3.77762C8.28985 3.87298 8.18212 3.87853 7.99246 3.93889C7.67971 4.03843 7.14774 4.18027 6.88366 4.35192C7.27354 4.33478 7.68083 4.12889 8.06286 4.03514C8.27147 3.98394 8.47933 3.99171 8.68579 3.96297C8.56804 4.02072 8.44703 4.07789 8.33949 4.15381C8.5184 4.11675 9.37277 3.96724 9.52083 3.98137C9.46129 4.00865 9.1539 4.06332 9.07068 4.08381C8.85481 4.13698 8.59982 4.19354 8.39036 4.26596C8.57043 4.2585 8.73654 4.20257 8.90414 4.18688C9.1675 4.16222 9.47811 4.14542 9.74199 4.15059C9.59461 4.18893 9.44135 4.19088 9.29359 4.21905C8.81049 4.31116 8.32687 4.41982 7.8615 4.58337C7.77459 4.61396 7.64539 4.65558 7.57682 4.71318L7.57937 4.72822C7.62589 4.72882 7.84045 4.68779 7.90688 4.67884L7.88786 4.68963C7.68683 4.80225 7.37848 4.90239 7.16317 4.99582C6.8301 5.14035 6.5098 5.29777 6.19225 5.47593C4.8383 6.22601 3.69142 7.31512 2.85831 8.64187C2.47618 9.24306 2.15394 9.90274 1.94983 10.5905C1.88846 10.7972 1.88689 11.0099 1.83276 11.2169C1.39059 12.9083 1.49801 14.7526 2.11354 16.393C2.15202 16.4979 2.18729 16.5887 2.21364 16.6977C2.16113 16.6014 2.1137 16.4986 2.06234 16.4061C2.04223 16.4191 2.05243 16.4097 2.0363 16.4387C2.04784 16.5913 2.15132 16.8311 2.20285 16.9898C2.16154 16.9448 2.13661 16.9056 2.08238 16.8913C2.04781 16.9304 2.06046 16.9065 2.05902 16.9734L1.96882 16.7638C1.97099 16.9784 2.01087 17.0969 2.06419 17.3042C2.00519 17.2238 1.94064 17.1052 1.88902 17.0164C1.91796 17.1305 1.94568 17.2449 1.97216 17.3596C1.86943 17.2375 1.74557 17.0924 1.66341 16.9574C1.59903 16.8517 1.54323 16.7362 1.47853 16.6257C1.49045 16.7579 1.65687 17.2894 1.53112 17.3308L1.49944 17.3055C1.49766 17.39 1.61579 17.6136 1.65739 17.7007C1.53696 17.5772 1.42065 17.4099 1.30883 17.2718C1.34876 17.4263 1.43183 17.5791 1.48154 17.7452C1.2439 17.418 0.97429 16.821 0.823592 16.4421C0.768664 16.3039 0.80643 16.1557 0.703625 15.9325C0.683324 15.9759 0.689114 15.9843 0.656528 15.9989C0.623539 15.9638 0.562436 15.835 0.501913 15.7594C0.530692 15.9722 0.607444 16.1916 0.622578 16.4143C0.626804 16.4764 0.838223 16.4842 0.715596 16.6371C0.733628 16.786 0.819814 16.8277 0.876359 16.957C0.910209 17.0342 0.832531 17.0278 0.863385 17.1116C0.875375 17.1715 0.984721 17.2538 1.00073 17.2975C1.10718 17.5885 1.38523 17.9812 1.46344 18.2657C1.37938 18.2207 0.917516 17.281 0.847752 17.1189C0.204462 15.6234 -0.142241 13.8135 0.0554047 12.1825C0.0705941 12.0571 0.11555 11.9341 0.146241 11.812C0.177027 11.6895 0.19479 11.564 0.21438 11.4392C0.278102 11.0336 0.367877 10.6415 0.46199 10.2427C0.497083 10.0941 0.517772 9.94177 0.555094 9.79398C0.601959 9.60841 0.670228 9.42404 0.738119 9.24555C1.64991 6.84809 3.57781 4.70558 5.88542 3.67046C6.09783 3.57518 7.37988 3.07042 7.5471 3.15345C7.56836 3.164 7.5655 3.18497 7.5705 3.20652C7.59852 3.22047 7.72991 3.23706 7.78287 3.25021C7.95318 3.17531 8.18422 3.14014 8.36919 3.13911ZM0.749567 14.7445C0.750472 15.1635 1.10837 16.5779 1.35472 16.842C1.25774 16.4163 1.0724 15.9844 0.967544 15.5552C0.939775 15.4415 0.794162 14.7811 0.749567 14.7445ZM1.46819 15.5557C1.48907 15.7287 1.75017 16.6364 1.85882 16.7167C1.82903 16.5884 1.51946 15.6177 1.46819 15.5557ZM1.64851 11.2552C1.51196 11.5479 1.45024 12.0725 1.41632 12.4035C1.27545 13.7781 1.43362 14.945 1.86863 16.2467C1.89968 16.2018 1.69337 15.4764 1.66748 15.3654C1.39868 14.212 1.3448 13.0633 1.53779 11.8932C1.55368 11.7969 1.65685 11.3048 1.64851 11.2552ZM0.206945 12.5802C0.179657 12.7376 0.183312 12.9425 0.180605 13.1042C0.167837 13.8685 0.267762 14.6247 0.423614 15.3706C0.441018 15.4538 0.476106 15.7206 0.540289 15.7646C0.572429 15.7505 0.558885 15.7605 0.581521 15.7353L0.587473 15.712L0.614402 15.7105C0.635994 15.5309 0.437302 14.8247 0.412952 14.5882C0.356257 14.0378 0.314761 13.4911 0.313982 12.9363C0.313872 12.854 0.24862 12.6907 0.238735 12.6011C0.23692 12.5902 0.21714 12.5848 0.206945 12.5802ZM1.64492 8.95711C1.49451 9.1441 1.30676 9.73261 1.25549 9.7741C1.2258 9.75626 1.23673 9.76439 1.21635 9.73176C1.15151 9.79473 1.08586 9.9918 1.0828 10.0815C1.08083 10.1391 1.08623 10.2027 1.07223 10.2587C1.03105 10.4233 0.795894 10.9043 0.826078 11.0277C0.830603 11.0462 0.83454 11.0647 0.839161 11.0832C0.81287 11.1696 0.74443 11.294 0.729638 11.3582C0.580785 12.0044 0.452943 13.7583 0.650793 14.3664C0.669298 14.4107 0.668293 14.4306 0.700572 14.4529C0.759482 14.3203 0.705884 13.8144 0.694031 13.6591C0.678227 13.4517 0.675633 13.2461 0.668019 13.0386C0.659446 12.8051 0.60272 12.3048 0.723053 12.1036C0.757341 12.0463 0.867127 11.293 0.897792 11.1518C0.944425 10.9372 1.02946 10.7202 1.06418 10.5044C1.0748 10.4383 1.05929 10.3663 1.07722 10.3019C1.09651 10.2326 1.15375 10.2074 1.18332 10.148C1.25122 10.0118 1.30092 9.85925 1.35695 9.71696C1.41181 9.57763 1.66006 9.04941 1.64492 8.95711ZM1.18151 13.1433C1.13671 13.3361 1.15549 14.1123 1.25227 14.2675C1.26827 14.1434 1.21778 13.251 1.18151 13.1433ZM0.442562 11.0307C0.334219 11.2921 0.218531 12.1666 0.228073 12.4476C0.256092 12.4759 0.265281 12.4705 0.309403 12.4822L0.335198 12.4988C0.354268 12.4679 0.467734 11.1205 0.442562 11.0307ZM1.41227 11.3389C1.34241 11.4651 1.24859 11.9821 1.24708 12.1496C1.24691 12.1677 1.26288 12.189 1.27328 12.2041C1.32435 12.1273 1.45366 11.3782 1.41227 11.3389ZM1.32592 8.50489C1.2492 8.55646 1.19738 8.72642 1.15439 8.81259C0.886046 9.35041 0.743223 9.915 0.559673 10.4838C0.543199 10.5402 0.515347 10.6176 0.517329 10.6738L0.534424 10.6745C0.556297 10.6028 0.562792 10.5633 0.608079 10.5038L0.6081 10.5038C0.611911 10.5652 0.587927 10.6416 0.57293 10.7035C0.571713 10.7519 0.567916 10.7795 0.581586 10.8264C0.640373 10.7619 0.732112 10.3057 0.771894 10.1838C0.837885 9.98149 0.915835 9.78132 0.98791 9.57999C1.06253 9.37159 1.12041 9.15463 1.21378 8.95141C1.21856 8.94077 1.19563 8.88204 1.19049 8.86969C1.21811 8.78413 1.39171 8.73706 1.37662 8.56179C1.34877 8.5135 1.36726 8.52931 1.32592 8.50489ZM2.57838 7.44317C2.35933 7.69324 1.94797 8.34144 1.8211 8.64636L1.83291 8.66074C1.96939 8.46113 2.10293 8.22148 2.23416 8.014C2.30638 7.89984 2.55614 7.55171 2.59098 7.46166L2.57838 7.44317ZM2.46914 6.63195C2.27494 6.82761 1.51958 7.90634 1.41305 8.15895C1.47237 8.09923 1.53105 8.03883 1.58905 7.97778C1.54706 8.06122 1.49655 8.15608 1.45849 8.24015C1.43612 8.29524 1.42632 8.29235 1.43747 8.3381C1.5792 8.36807 1.92416 7.60196 1.9894 7.47718C2.04731 7.36899 2.11037 7.26377 2.17838 7.16193C2.27087 7.02191 2.41489 6.95223 2.46011 6.81251C2.47124 6.77816 2.46691 6.7101 2.48222 6.65444L2.46914 6.63195ZM5.11758 5.11892C4.56481 5.418 3.26512 6.43109 2.89341 7.06694C2.89224 7.07484 2.89105 7.08274 2.88988 7.09064L2.90726 7.08355C3.16392 6.80279 3.42798 6.53421 3.66646 6.2368C3.68939 6.21324 3.72591 6.19978 3.75579 6.19215C3.82383 6.17481 3.88515 6.11046 3.93853 6.06386C4.20559 5.83087 4.48465 5.61338 4.76049 5.39191C4.84668 5.3227 5.07245 5.19312 5.13188 5.12355L5.11758 5.11892ZM3.0485 5.98528C2.9072 6.12975 2.66756 6.34162 2.61235 6.52519L2.61732 6.55139C2.6559 6.53136 2.66187 6.52038 2.69163 6.48841L2.72894 6.45968C2.76199 6.46847 2.77813 6.48124 2.79418 6.46603C2.88971 6.3755 3.06657 6.19569 3.12521 6.087C3.09545 6.02639 3.07754 6.03463 3.0485 5.98528ZM4.75013 4.64027C4.52847 4.77681 3.27967 5.67049 3.223 5.84226L3.29605 5.86452C3.31624 5.90354 3.30977 5.88862 3.3138 5.93591C3.46244 5.80001 3.65016 5.61987 3.79931 5.48854C3.95796 5.34886 4.80722 4.81034 4.86282 4.69084C4.82632 4.67455 4.78427 4.65846 4.75013 4.64027ZM6.09949 4.7113C5.77287 4.86769 5.23718 5.14023 4.96271 5.38211L4.96037 5.39917L4.97121 5.4017C5.14698 5.29881 6.03717 4.81641 6.11465 4.73527L6.11114 4.71552L6.09949 4.7113ZM5.36441 4.09365C5.26934 4.14018 4.91883 4.37235 4.85211 4.36525C4.74753 4.3541 4.46694 4.58229 4.38432 4.6546C4.30602 4.72315 4.22254 4.79967 4.16257 4.88582L4.18717 4.88944C4.37392 4.79339 4.5881 4.64435 4.77187 4.5338C4.84759 4.48827 5.35297 4.21744 5.38019 4.18057C5.38319 4.151 5.38522 4.12961 5.38654 4.09975L5.36441 4.09365ZM7.83056 4.13908C7.75228 4.16361 7.64634 4.1909 7.57996 4.23332L7.56889 4.26032C7.59307 4.28206 7.58344 4.2766 7.61271 4.28932C7.70347 4.26965 7.79643 4.24672 7.87112 4.1878L7.87807 4.16193C7.85161 4.14498 7.86014 4.14818 7.83056 4.13908Z" fill="#E2AB5E"/>
<path fill-rule="evenodd" clip-rule="evenodd" d="M13.4008 3.09422C13.7831 3.15999 14.0465 3.24207 14.418 3.36452C16.2874 3.99295 17.9105 5.22049 19.0481 6.86626C19.1638 7.03245 19.353 7.32876 19.4559 7.48844C19.6332 7.76318 20.3463 9.15835 20.3296 9.4183L20.3201 9.426C20.2551 9.39398 20.1448 9.06322 20.1063 8.97194C19.9116 8.51492 19.6893 8.07076 19.4409 7.64204C19.3046 7.40774 19.1348 7.20056 19.0366 6.96841C19.012 6.91022 19.0012 6.92787 18.9776 6.90254C18.8098 6.72367 18.6311 6.47491 18.4705 6.285C18.0417 5.78195 17.5622 5.32682 17.04 4.92725C16.93 4.84144 16.7647 4.70715 16.6497 4.64474L16.6776 4.8251C16.8734 5.00281 17.0856 5.14866 17.2742 5.31323C17.5079 5.5171 17.7745 5.78461 17.9843 6.00873C19.6068 7.75205 20.5823 10.1769 20.7016 12.5798C20.7634 13.8255 20.5085 15.242 20.0434 16.3942C20.0194 16.4533 19.8688 16.8057 19.8421 16.8318L19.8357 16.7883C19.7646 16.8391 19.5174 17.3962 19.3474 17.5829L19.355 17.563C19.4198 17.3984 19.5072 17.247 19.5783 17.0897C19.7165 16.7843 19.9002 16.4233 20.0151 16.1104C20.6098 14.4905 20.7565 12.7885 20.3898 11.0927C20.2818 10.5938 20.1849 10.1382 19.993 9.65187C19.9791 9.61693 19.9634 9.5827 19.9462 9.54932C19.9306 9.56187 19.9146 9.57282 19.8975 9.58303C19.8298 9.5409 19.7451 9.20468 19.725 9.12137L19.7218 9.10852C19.7673 9.17618 19.8208 9.26245 19.8747 9.32096C19.8086 9.11362 19.6552 8.80195 19.5599 8.60389C18.9106 7.25107 17.9646 6.07065 16.7963 5.15501C16.5788 4.9841 16.2094 4.69266 15.9499 4.60658C16.3626 5.00047 16.7957 5.3712 17.2476 5.71717C17.385 5.82289 17.6285 5.88718 17.696 6.05798C17.6911 6.12275 17.6784 6.15948 17.7251 6.2099C19.4826 8.10502 20.5485 10.7869 20.4024 13.4133C20.3778 13.9062 20.3089 14.3957 20.1966 14.8756C20.0685 15.4293 19.473 17.1207 19.1017 17.5577C19.1867 17.3545 19.3036 17.0548 19.3653 16.845C19.3178 16.918 19.205 17.1287 19.1595 17.1755C18.9961 17.3435 18.8973 17.4429 18.7644 17.6428C18.8068 17.4968 18.8976 17.3555 18.9599 17.2172C18.9257 17.2605 18.892 17.3154 18.8432 17.3334C18.7985 17.2746 18.9868 16.9046 19.0158 16.8112C18.9212 16.9065 18.8682 16.9709 18.7841 17.0774C18.7882 17.0164 18.7942 16.9501 18.7967 16.8897C18.7004 17.0054 18.6481 17.1228 18.563 17.2249C18.8397 16.5742 19.005 16.213 19.1778 15.5134C19.1036 15.5979 19.0637 15.7363 19.0042 15.8435C19.1246 15.3752 19.2521 14.9092 19.328 14.4296C19.6339 12.4949 19.2197 10.5478 18.2557 8.85217C17.511 7.51622 16.4311 6.40903 15.1281 5.64553C14.9959 5.56838 14.0701 5.09304 14.0429 5.05654C14.1164 5.02875 14.4191 5.18735 14.5018 5.22157C14.2541 5.00538 13.7302 4.82376 13.4218 4.70101C13.2836 4.64606 13.1258 4.55941 12.9866 4.51779C12.7462 4.4479 12.5045 4.3828 12.2615 4.32248C12.1419 4.2937 11.9796 4.26432 11.8663 4.23153C11.7458 4.21726 11.6463 4.21167 11.5376 4.15701C11.5644 4.15579 11.6082 4.17298 11.6437 4.17604C11.7618 4.1862 11.8768 4.19129 11.9948 4.20532L12.0143 4.20557C12.1129 4.2079 12.2292 4.22552 12.3266 4.23761C12.242 4.19781 12.159 4.16354 12.073 4.1277C12.3997 4.14171 12.9071 4.30025 13.2253 4.39127C13.0066 4.22778 12.4822 4.01355 12.2114 3.93267C12.0848 3.89488 11.9178 3.86723 11.7785 3.82366L11.7618 3.81836C11.9657 3.81982 12.285 3.9031 12.5281 3.91821L12.505 3.90441C12.3444 3.80753 12.2439 3.83435 12.0663 3.74664C12.2544 3.76591 12.5173 3.82755 12.7138 3.85822L12.7345 3.84239C12.9057 3.84001 13.013 3.86542 13.1808 3.88946C13.0836 3.85573 13.0043 3.827 12.9044 3.80448C12.6963 3.7308 12.3695 3.66154 12.1523 3.61432C12.0606 3.6021 11.958 3.56544 11.8558 3.54723C11.9427 3.54029 12.2327 3.57729 12.3328 3.59038L12.3487 3.59089C12.6869 3.60529 13.2696 3.86083 13.5969 3.89408C13.3634 3.76966 13.2307 3.77501 13.0405 3.68283C13.0923 3.65837 13.1056 3.69872 13.1262 3.66052C13.0029 3.52073 12.079 3.36373 12.0056 3.27185C12.2917 3.29842 12.6062 3.3961 12.8948 3.4275C13.1983 3.46053 13.4534 3.56317 13.7392 3.65821L14.4826 3.90439C14.6744 3.9692 14.868 4.0138 15.0554 4.08184C14.846 3.89318 14.2994 3.67042 14.025 3.56313C13.9521 3.53379 13.869 3.5396 13.7958 3.51787C13.7704 3.51034 13.7127 3.44013 13.6847 3.43079C13.4362 3.34787 13.1761 3.28715 12.9273 3.20558C13.1173 3.17146 13.3674 3.23608 13.6125 3.23232C13.5401 3.18749 13.4694 3.14532 13.4008 3.09422ZM19.7849 12.8385C19.7665 13.0783 19.7765 13.3107 19.7608 13.5454C19.7231 14.1085 19.6353 14.6713 19.5095 15.2203C19.4339 15.5503 19.2171 16.0494 19.1562 16.3559L19.1649 16.3612C19.2463 16.2072 19.3878 15.7569 19.4347 15.5787C19.4895 15.3564 19.5754 15.1362 19.6302 14.915C19.7571 14.4027 19.7916 13.8726 19.8097 13.3463C19.8141 13.2228 19.8286 12.9401 19.7849 12.8385ZM20.1698 14.4233C20.1329 14.5495 19.9511 15.3087 19.9691 15.3731L19.9756 15.3778C20.0833 15.2016 20.1188 15.0115 20.1522 14.8088C20.1642 14.7362 20.2205 14.473 20.1698 14.4233ZM16.5268 6.43238C16.6424 6.55728 16.8003 6.68987 16.9255 6.81363C17.1505 7.03542 17.3617 7.27141 17.5581 7.52019C18.8808 9.19109 19.666 11.5085 19.5392 13.6573C19.5348 13.7331 19.487 14.3942 19.4984 14.4193L19.5124 14.3961C19.9735 11.6489 18.7918 8.47088 16.7568 6.60496C16.7088 6.56097 16.5733 6.4468 16.5164 6.42103L16.5268 6.43238ZM19.6863 11.9273C19.6887 12.0509 19.7259 12.495 19.7445 12.6453C19.7522 12.6528 19.7598 12.6603 19.7673 12.6678C19.7669 12.4713 19.7434 12.1073 19.6863 11.9273ZM19.2369 10.036C19.2585 10.1255 19.2834 10.2227 19.2992 10.3129L19.3043 10.337C19.359 10.5903 19.4751 10.9593 19.54 11.2276L19.633 11.3146C19.5764 10.9965 19.471 10.6458 19.3628 10.3359L19.3411 10.2745C19.3042 10.1723 19.2888 10.1304 19.2369 10.036ZM19.6844 9.69889C19.7962 10.1731 19.9439 10.6203 20.0614 11.0953L20.0817 11.098C20.1396 10.8392 19.8417 10.008 19.7221 9.73952C19.7161 9.72589 19.6974 9.70793 19.6844 9.69889ZM18.1067 7.90497C18.1545 8.07036 18.4422 8.51246 18.546 8.68346C18.656 8.86498 18.9045 9.41415 19.0294 9.55115C19.0125 9.29506 18.2981 8.04747 18.1067 7.90497ZM16.6187 6.27957C16.8724 6.55519 17.1176 6.76688 17.3816 7.06528C17.516 7.21636 17.6464 7.37119 17.7724 7.52958C17.8102 7.57636 17.9421 7.74935 17.9786 7.78596C17.9804 7.75692 17.9841 7.70001 17.9716 7.67779C17.8717 7.49864 17.6311 7.22822 17.5065 7.07836C17.3555 6.89654 16.8188 6.31947 16.6187 6.27957ZM14.692 5.04785C14.7766 5.11236 14.965 5.20741 15.0646 5.26179C15.2469 5.3598 15.4263 5.4636 15.6024 5.57298C15.6705 5.61487 16.0844 5.87982 16.1386 5.89269C15.9323 5.68006 14.9568 5.04267 14.692 5.04785ZM15.1419 4.98981C15.246 5.0669 16.1221 5.68194 16.1633 5.69584C16.0386 5.51238 15.3559 5.01626 15.1419 4.98981ZM15.057 4.30517C15.0728 4.32106 16.4988 5.26457 16.5767 5.32928C16.4141 5.11378 15.2644 4.34402 15.057 4.30517ZM16.1391 4.32067C16.1189 4.39624 16.1339 4.36792 16.0738 4.42675C16.1268 4.50521 16.5568 4.78147 16.6513 4.82543L16.6491 4.79914C16.6053 4.76354 16.5821 4.75772 16.5663 4.7126C16.5864 4.67691 16.587 4.67653 16.6151 4.64693C16.595 4.57364 16.2164 4.34736 16.1391 4.32067ZM14.1435 4.3612C13.9785 4.27173 13.0587 3.9259 12.9121 3.96288C12.835 3.99412 12.7712 3.98474 12.6878 3.97898C12.7914 4.03579 13.17 4.13064 13.3005 4.17246C13.4723 4.22748 13.7077 4.31714 13.8767 4.34707C13.9821 4.36431 14.0357 4.3626 14.1435 4.3612ZM15.4251 3.94206C15.4383 3.98367 15.4504 3.99352 15.4382 4.02445C15.3957 4.02278 15.3877 4.02091 15.3458 4.01146L15.3309 4.02239C15.4061 4.08704 15.7917 4.28599 15.894 4.34115L15.9342 4.35096L15.9455 4.3356L15.9357 4.28179C15.9654 4.25582 15.9632 4.26695 15.9743 4.23665C15.9036 4.16687 15.5122 3.93775 15.4251 3.94206Z" fill="#E2AB5E"/>
<path d="M18.1883 9.61465C18.325 9.7035 18.6243 10.5296 18.6866 10.7209C19.3705 12.7723 19.2202 15.0195 18.2698 16.956L18.2476 16.9806L18.2347 16.9755C18.2548 16.8876 18.3064 16.7874 18.3414 16.7031C19.1974 14.6467 19.2692 12.3205 18.4483 10.2385C18.366 10.0296 18.2731 9.82373 18.1883 9.61465Z" fill="#E2AB5E"/>
<path d="M6.55595 5.68075C6.64489 5.62835 6.73336 5.54708 6.83707 5.58573C6.78078 5.64268 6.66086 5.69707 6.58737 5.73492C6.08858 5.99173 5.62496 6.29955 5.18326 6.64901C3.1272 8.26769 1.92467 10.7767 1.93101 13.4346C1.93381 14.3231 2.07495 15.2054 2.34909 16.0483C2.40118 16.2102 2.64587 16.7973 2.65736 16.9065L2.64009 16.9009C2.52149 16.6367 2.39585 16.3668 2.30168 16.0929C1.68266 14.2665 1.69783 12.2767 2.3446 10.4603C2.64728 9.63045 3.07065 8.8523 3.60037 8.15231C3.78288 7.91334 3.9604 7.69356 4.174 7.4833C4.19089 7.46666 4.19343 7.43121 4.1933 7.40796C4.12037 7.39867 3.8876 7.70041 3.83686 7.76165C3.34824 8.35038 2.93338 8.9995 2.60197 9.69386C2.41748 10.0857 2.25299 10.5082 2.10076 10.9148C2.06927 10.9989 1.98837 11.3376 1.9403 11.3711C1.93135 11.3281 1.9836 11.1487 1.99647 11.0936C2.19107 10.2608 2.57909 9.38505 3.04611 8.67518C3.60668 7.82313 4.56613 6.79473 5.42555 6.2529C5.54439 6.15908 6.0951 5.77618 6.21866 5.76161C6.07858 5.88742 5.64929 6.11688 5.44951 6.27579C5.11089 6.56658 4.72442 6.80586 4.44038 7.1781C4.65147 7.0618 4.9588 6.74808 5.16032 6.58524C5.60048 6.22959 6.07194 5.96589 6.55595 5.68075Z" fill="#E2AB5E"/>
<path d="M20.7663 10.9191C20.8738 11.0553 21.0086 12.4399 20.9782 12.6566C20.9298 12.5807 20.8982 11.6675 20.8587 11.5129C20.8356 11.4231 20.7519 11.0065 20.7663 10.9191Z" fill="#E2AB5E"/>
<path d="M20.6702 10.5124C20.7283 10.575 20.7402 10.7173 20.7381 10.8005C20.6862 10.725 20.6726 10.6026 20.6702 10.5124Z" fill="#E2AB5E"/>
<path d="M20.4485 9.76912C20.5055 9.80919 20.6277 10.278 20.6412 10.3679C20.5809 10.3255 20.4728 9.87001 20.4485 9.76912Z" fill="#E2AB5E"/>
<path d="M16.9999 7.44509C17.0104 7.45147 17.0242 7.45909 17.0321 7.4683C17.6501 8.1844 18.1798 8.98407 18.545 9.86631C18.5939 9.98442 18.7125 10.2256 18.7136 10.3416C18.6765 10.2827 18.6184 10.1384 18.5878 10.0692C18.5093 9.89209 18.4282 9.71624 18.3446 9.5417C18.1044 9.05218 17.8245 8.6025 17.5158 8.15591C17.4469 8.05633 17.007 7.49753 16.9999 7.44509Z" fill="#E2AB5E"/>
<path d="M17.4118 8.23997C17.5004 8.29028 18.0399 9.18554 18.0244 9.28613C17.9067 9.11938 17.7879 8.87991 17.6669 8.70016C17.6186 8.62831 17.4133 8.33216 17.3913 8.28189L17.4118 8.23997Z" fill="#E2AB5E"/>
<path d="M13.6632 5.36792C13.7939 5.40734 13.8755 5.4452 13.9995 5.50363C14.2294 5.60991 14.4359 5.70445 14.6603 5.82345C14.8313 5.91418 15.1304 6.11551 15.2926 6.18518C15.1891 6.07969 15.0769 5.99876 14.9575 5.91722L14.9058 5.88216C14.8016 5.8221 14.6388 5.73368 14.5524 5.65363C14.7039 5.71455 14.7947 5.77295 14.9325 5.8569C15.6847 6.29156 16.4049 6.92203 16.9629 7.59169C17.0277 7.66944 17.0727 7.79805 17.1389 7.88402C17.1854 7.94432 17.2988 8.04312 17.3008 8.1151L17.2805 8.12288C17.2015 8.05323 17.0725 7.88528 16.9985 7.79861C16.8526 7.62536 16.6994 7.45863 16.5394 7.29892C15.7832 6.53766 14.9318 5.99146 13.9799 5.53099C13.8575 5.47756 13.7729 5.44579 13.6632 5.36792Z" fill="#E2AB5E"/>
<path d="M7.21468 5.41111C7.17771 5.46001 6.90667 5.57703 6.83707 5.58573C6.86248 5.52012 6.88745 5.49635 6.9571 5.46517C7.01925 5.43741 7.08633 5.42305 7.15413 5.42301C7.18159 5.42304 7.1889 5.41928 7.21468 5.41111Z" fill="#E2AB5E"/>
<path d="M10.4625 0C10.509 0.0453203 10.5646 1.71252 10.9293 2.17946C11.2926 2.64496 12.473 2.69476 13.0303 2.74951C12.506 2.81772 11.5253 2.85363 11.098 3.15067C10.5527 3.52971 10.5756 4.83796 10.4704 5.43922L10.4678 5.45337L10.464 5.45473C10.4443 5.35375 10.4462 5.24143 10.4334 5.14374C10.3667 4.63359 10.313 3.6754 9.98941 3.28408C9.65135 2.87519 8.41144 2.7831 7.90956 2.75512C8.46405 2.65104 9.46317 2.66626 9.91734 2.27233C10.3268 1.91727 10.4195 0.541633 10.4625 0Z" fill="#E2AB5E"/>
<path d="M12.3997 4.94981C12.5862 4.95779 13.3385 5.11958 13.4909 5.26297C13.5235 5.29363 13.6005 5.34367 13.636 5.37205C13.5511 5.35919 13.0716 5.16399 12.9444 5.12348C12.8186 5.0834 12.5047 4.99352 12.3997 4.94981Z" fill="#E2AB5E"/>
<path d="M8.51157 4.96823C8.46528 4.99714 8.16079 5.08406 8.08571 5.10931C7.84613 5.19102 7.60831 5.27813 7.37247 5.37062L7.35174 5.36989L7.35337 5.34771C7.55516 5.14226 8.17878 5.03463 8.47248 4.97062L8.51157 4.96823Z" fill="#E2AB5E"/>
<path d="M9.35878 3.52823L9.35036 3.53238L9.346 3.52505C9.34872 3.52417 9.35133 3.52324 9.35385 3.52232L9.35878 3.52823Z" fill="#E2AB5E"/>
<path d="M9.36635 3.51738C9.36254 3.51909 9.35834 3.5207 9.35385 3.52232L9.33961 3.50531L9.36635 3.51738Z" fill="#E2AB5E"/>
</svg>
